<?xml version="1.0" standalone="no"?>
<svg viewBox="0 0 200 200" xmlns="http://www.w3.org/2000/svg">
  <path fill="#5A5BAF" d="M44.3,-74.1C53.8,-62.9,55.4,-44.4,60.7,-28.9C65.9,-13.3,74.9,-0.6,74.8,11.9C74.8,24.4,65.7,36.7,55.5,47.6C45.3,58.4,34,67.7,20.2,74.2C6.5,80.6,-9.7,84.2,-22.9,79.6C-36.2,75,-46.5,62.2,-52.6,49C-58.6,35.8,-60.3,22.4,-64.1,8.1C-67.9,-6.2,-73.9,-21.3,-72.4,-36.5C-70.9,-51.8,-61.9,-67,-48.6,-76.5C-35.3,-86,-17.6,-89.7,-0.1,-89.6C17.4,-89.4,34.8,-85.3,44.3,-74.1Z" transform="translate(100 100)" />
</svg>
