<?xml version="1.0" standalone="no"?>
<svg viewBox="0 0 200 200" xmlns="http://www.w3.org/2000/svg">
  <path fill="#FA4D56" d="M44.5,-63.2C59.4,-59.7,74.3,-50.2,78.4,-37C82.5,-23.8,75.7,-7,72.4,9.8C69.1,26.6,69.1,43.3,60.7,52.1C52.3,60.9,35.3,61.7,20.5,62.9C5.7,64,-7,65.5,-17.4,61.4C-27.7,57.3,-35.8,47.7,-44.8,38.3C-53.9,28.9,-63.8,19.8,-69.4,7.5C-75,-4.8,-76.3,-20.1,-70.6,-32C-64.8,-44,-52,-52.6,-39.1,-56.9C-26.2,-61.3,-13.1,-61.4,0.9,-62.8C14.8,-64.2,29.7,-66.7,44.5,-63.2Z" transform="translate(100 100)" />
</svg>
