<?xml version="1.0" standalone="no"?>
<svg viewBox="0 0 200 200" xmlns="http://www.w3.org/2000/svg">
  <path fill="#08BDBA" d="M43.5,-75C56.8,-67.6,68.4,-56.9,76.7,-43.9C85,-30.8,90,-15.4,90,0C89.9,15.4,84.9,30.8,76.4,43.5C67.9,56.1,55.9,66.1,42.6,73.2C29.3,80.3,14.7,84.4,-0.5,85.3C-15.7,86.2,-31.3,83.8,-44.6,76.7C-57.9,69.6,-68.7,57.8,-75.7,44.2C-82.7,30.6,-85.8,15.3,-86.7,-0.5C-87.6,-16.3,-86.2,-32.6,-79.1,-46.1C-72.1,-59.6,-59.4,-70.2,-45.3,-77.2C-31.1,-84.1,-15.6,-87.3,-0.2,-86.9C15.1,-86.5,30.1,-82.4,43.5,-75Z" transform="translate(100 100)" />
</svg>
