<?xml version="1.0" standalone="no"?>
<svg viewBox="0 0 200 200" xmlns="http://www.w3.org/2000/svg">
  <path fill="#24A148" d="M42.7,-67.8C56.5,-57.5,69.6,-47.7,75.9,-34.5C82.2,-21.3,81.7,-4.8,75.5,8C69.2,20.9,57.3,30,47.6,41.3C37.9,52.5,30.6,65.8,20.1,69.3C9.6,72.7,-4,66.5,-17.2,61.4C-30.4,56.3,-43.2,52.4,-50,43.8C-56.9,35.2,-57.7,21.8,-61.1,7.9C-64.5,-6,-70.4,-20.4,-69.3,-35.3C-68.2,-50.2,-60.1,-65.5,-47.3,-76.3C-34.6,-87,-17.3,-93.3,-1.4,-91.1C14.4,-88.9,28.9,-78.1,42.7,-67.8Z" transform="translate(100 100)" />
</svg>
