<?xml version="1.0" standalone="no"?>
<svg viewBox="0 0 200 200" xmlns="http://www.w3.org/2000/svg">
  <path fill="#0F62FE" d="M40.9,-59.4C54.5,-54.9,68.1,-46.1,76.8,-33.3C85.6,-20.4,89.4,-3.5,87.5,12.9C85.6,29.3,78,45.1,67.1,58.7C56.2,72.2,42,83.3,27,84.3C12,85.2,-3.8,75.9,-19.7,69.9C-35.7,64,-51.9,61.5,-65.1,52.8C-78.3,44.1,-88.5,29.1,-85.5,15.5C-82.6,1.8,-66.5,-10.6,-57.3,-24.3C-48.2,-38,-46,-53.1,-37.6,-60C-29.2,-66.9,-14.6,-65.7,-0.5,-64.9C13.6,-64.2,27.3,-63.9,40.9,-59.4Z" transform="translate(100 100)" />
</svg>
