<?xml version="1.0" standalone="no"?>
<svg viewBox="0 0 200 200" xmlns="http://www.w3.org/2000/svg">
  <path fill="#DB7093" d="M52.7,-69.7C67.7,-61.7,78.7,-45.4,83.4,-27.9C88,-10.3,86.2,8.6,78.4,23.3C70.7,38,56.9,48.7,42.8,56.7C28.7,64.7,14.4,70.1,-1.9,72.6C-18.1,75.2,-36.1,74.9,-51.2,67.2C-66.2,59.5,-78.3,44.4,-80.2,28.5C-82,12.5,-73.7,-4.4,-67.2,-21.1C-60.7,-37.8,-56.1,-54.3,-45.2,-63.5C-34.3,-72.8,-17.1,-74.8,0.9,-76C18.9,-77.2,37.8,-77.6,52.7,-69.7Z" transform="translate(100 100)" />
</svg>
